<?xml version="1.0" encoding="utf-8"?>
<!-- Generator: Adobe Illustrator 21.0.2, SVG Export Plug-In . SVG Version: 6.00 Build 0)  -->
<svg version="1.1" id="Layer_1" xmlns="http://www.w3.org/2000/svg" xmlns:xlink="http://www.w3.org/1999/xlink" x="0px" y="0px"
	 viewBox="0 0 829 768" style="enable-background:new 0 0 829 768;" xml:space="preserve" width="512" height="512">
<g>
	<g>
		<path d="M566.8,319l-41.9-7.1c-4.4-14.1-10-27.7-16.8-40.7l24.7-34.6c10.5-14.7,8.9-34.8-4-47.5l-37.2-37.2
			c-7-7-16.2-10.9-26.1-10.9c-7.7,0-15.1,2.4-21.3,6.9l-34.7,24.7c-13.5-7.1-27.6-13-42.2-17.3l-7-41.4c-3-17.8-18.3-30.8-36.4-30.8
			h-52.5c-18.1,0-33.4,13-36.4,30.8l-7.2,42.4c-14,4.4-27.6,10.1-40.6,17.1l-34.3-24.7c-6.2-4.5-13.7-6.9-21.5-6.9
			c-9.9,0-19.2,3.9-26.1,10.9L68,189.9c-12.7,12.7-14.5,32.8-4,47.5l25,35.1c-6.9,13.1-12.4,26.7-16.6,40.8l-41.4,7
			c-17.8,3-30.8,18.3-30.8,36.4v52.5c0,18.1,13,33.4,30.8,36.4l42.4,7.2c4.4,14,10.1,27.6,17.1,40.6l-24.6,34.2
			c-10.5,14.7-8.9,34.8,4,47.5l37.2,37.2c7,7,16.2,10.9,26.1,10.9c7.7,0,15.1-2.4,21.3-6.9l35.1-25c12.6,6.6,25.8,12,39.4,16.2
			l7,41.9c3,17.8,18.3,30.8,36.4,30.8H325c18.1,0,33.4-13,36.4-30.8l7.1-41.9c14.1-4.4,27.7-10,40.7-16.8l34.6,24.7
			c6.2,4.5,13.7,6.9,21.5,6.9l0,0c9.9,0,19.1-3.9,26.1-10.9l37.2-37.2c12.7-12.7,14.5-32.8,4-47.5l-24.7-34.7
			c6.9-13.1,12.6-26.7,16.8-40.7l41.9-7c17.8-3,30.8-18.3,30.8-36.4v-52.5C597.6,337.3,584.7,322,566.8,319z M564,408
			c0,1.6-1.1,3-2.7,3.2l-52.4,8.7c-6.6,1.1-11.9,6-13.5,12.4c-4.7,18.3-12,35.9-21.7,52.3c-3.4,5.7-3.1,12.9,0.7,18.3l30.8,43.4
			c0.9,1.2,0.7,3.1-0.4,4.2l-37.2,37.2c-0.9,0.9-1.7,1-2.4,1c-0.7,0-1.4-0.2-1.9-0.6l-43.3-30.8c-5.4-3.9-12.6-4.1-18.3-0.7
			c-16.3,9.7-33.9,17-52.3,21.7c-6.5,1.6-11.4,7-12.4,13.5l-8.9,52.4c-0.2,1.6-1.6,2.7-3.2,2.7h-52.5c-1.6,0-3-1.1-3.2-2.7
			l-8.7-52.4c-1.1-6.6-6-11.9-12.4-13.5c-17.8-4.6-35.1-11.7-51.2-21c-2.6-1.5-5.6-2.2-8.5-2.2c-3.4,0-6.9,1-9.7,3.1l-43.7,31.1
			c-0.6,0.4-1.2,0.6-1.9,0.6c-0.5,0-1.5-0.1-2.4-1l-37.2-37.2c-1.1-1.1-1.2-2.9-0.4-4.2l30.7-43c3.9-5.5,4.1-12.7,0.7-18.5
			c-9.7-16.2-17.2-33.8-22-52.2c-1.7-6.4-7-11.2-13.5-12.4l-52.8-9c-1.6-0.2-2.7-1.6-2.7-3.2v-52.5c0-1.6,1.1-3,2.7-3.2l52-8.7
			c6.6-1.1,12-6,13.6-12.5c4.6-18.3,11.7-36.1,21.3-52.4c3.4-5.7,3-12.9-0.9-18.2l-31.1-43.7c-0.9-1.2-0.7-3.1,0.4-4.2l37.2-37.2
			c0.9-0.9,1.7-1,2.4-1c0.7,0,1.4,0.2,1.9,0.6l43,30.7c5.5,3.9,12.7,4.1,18.5,0.7c16.2-9.7,33.8-17.2,52.2-22
			c6.4-1.7,11.2-7,12.4-13.5l9-52.8c0.2-1.6,1.6-2.7,3.2-2.7h52.5c1.6,0,3,1.1,3.2,2.7l8.7,52c1.1,6.6,6,12,12.5,13.6
			c18.8,4.7,36.8,12.1,53.5,22c5.7,3.4,12.9,3.1,18.3-0.7l43-30.9c0.6-0.4,1.2-0.6,1.9-0.6c0.5,0,1.5,0.1,2.4,1l37.2,37.2
			c1.1,1.1,1.2,2.9,0.4,4.2l-30.8,43.3c-3.9,5.4-4.1,12.6-0.7,18.3c9.7,16.3,17,33.9,21.7,52.3c1.6,6.5,7,11.4,13.5,12.4l52.4,8.9
			c1.6,0.2,2.7,1.6,2.7,3.2V408H564z" fill="#2c3e50"/>
		<path d="M298.8,252.8c-71.1,0-128.9,57.8-128.9,128.9s57.8,128.9,128.9,128.9s128.9-57.8,128.9-128.9
			S369.9,252.8,298.8,252.8z M298.8,476.8c-52.5,0-95.2-42.7-95.2-95.2s42.7-95.2,95.2-95.2s95.2,42.7,95.2,95.2
			S351.3,476.8,298.8,476.8z" fill="#2c3e50"/>
	</g>
</g>
<g>
	<g>
		<path d="M813.8,586.4l-21.1-3.6c-2.2-7.1-5-13.9-8.5-20.4l12.4-17.4c5.3-7.4,4.5-17.5-2-23.9L776,502.4
			c-3.5-3.5-8.2-5.5-13.1-5.5c-3.9,0-7.6,1.2-10.7,3.4l-17.4,12.4c-6.8-3.6-13.9-6.5-21.2-8.7l-3.5-20.8c-1.5-9-9.2-15.5-18.3-15.5
			h-26.4c-9.1,0-16.8,6.5-18.3,15.5l-3.6,21.3c-7,2.2-13.9,5.1-20.4,8.6l-17.2-12.4c-3.1-2.3-6.9-3.4-10.8-3.4
			c-5,0-9.7,1.9-13.1,5.5l-18.8,18.7c-6.4,6.4-7.3,16.5-2,23.9l12.5,17.6c-3.4,6.6-6.2,13.4-8.3,20.5l-20.8,3.5
			c-9,1.5-15.5,9.2-15.5,18.3v26.4c0,9.1,6.5,16.8,15.5,18.3l21.3,3.6c2.2,7,5.1,13.9,8.6,20.4L562,691.2c-5.3,7.4-4.5,17.5,2,23.9
			l18.7,18.7c3.5,3.5,8.2,5.5,13.1,5.5c3.9,0,7.6-1.2,10.7-3.4l17.6-12.5c6.3,3.3,13,6,19.8,8.2l3.5,21.1c1.5,9,9.2,15.5,18.3,15.5
			h26.5c9.1,0,16.8-6.5,18.3-15.5l3.6-21.1c7.1-2.2,13.9-5,20.4-8.5l17.4,12.4c3.1,2.3,6.9,3.4,10.8,3.4l0,0c5,0,9.6-1.9,13.1-5.5
			l18.7-18.7c6.4-6.4,7.3-16.5,2-23.9l-12.4-17.4c3.4-6.6,6.3-13.4,8.5-20.4l21.1-3.5c9-1.5,15.5-9.2,15.5-18.3v-26.4
			C829.3,595.6,822.8,587.9,813.8,586.4z M812.4,631.1c0,0.8-0.6,1.5-1.4,1.6l-26.3,4.4c-3.3,0.6-6,3-6.8,6.2
			c-2.4,9.2-6,18.1-10.9,26.3c-1.7,2.9-1.6,6.5,0.4,9.2l15.5,21.8c0.4,0.6,0.4,1.6-0.2,2.1L764,721.5c-0.4,0.4-0.9,0.5-1.2,0.5
			c-0.4,0-0.7-0.1-0.9-0.3l-21.8-15.5c-2.7-1.9-6.3-2.1-9.2-0.4c-8.2,4.9-17.1,8.5-26.3,10.9c-3.3,0.8-5.7,3.5-6.2,6.8l-4.5,26.3
			c-0.1,0.8-0.8,1.4-1.6,1.4h-26.4c-0.8,0-1.5-0.6-1.6-1.4l-4.4-26.3c-0.6-3.3-3-6-6.2-6.8c-9-2.3-17.6-5.9-25.7-10.5
			c-1.3-0.8-2.8-1.1-4.3-1.1c-1.7,0-3.4,0.5-4.9,1.6l-21.9,15.6c-0.3,0.2-0.6,0.3-0.9,0.3c-0.3,0-0.8-0.1-1.2-0.5L576,703.3
			c-0.6-0.6-0.6-1.4-0.2-2.1l15.4-21.6c1.9-2.8,2.1-6.4,0.4-9.3c-4.9-8.2-8.7-17-11-26.2c-0.9-3.2-3.5-5.6-6.8-6.2l-26.5-4.5
			c-0.8-0.1-1.4-0.8-1.4-1.6v-26.4c0-0.8,0.6-1.5,1.4-1.6l26.1-4.4c3.3-0.6,6-3,6.8-6.3c2.3-9.2,5.9-18.1,10.7-26.3
			c1.7-2.9,1.5-6.5-0.4-9.2L575,535.6c-0.4-0.6-0.4-1.6,0.2-2.1l18.7-18.7c0.4-0.4,0.9-0.5,1.2-0.5c0.4,0,0.7,0.1,0.9,0.3l21.6,15.4
			c2.8,1.9,6.4,2.1,9.3,0.4c8.2-4.9,17-8.7,26.2-11c3.2-0.9,5.6-3.5,6.2-6.8l4.5-26.5c0.1-0.8,0.8-1.4,1.6-1.4h26.4
			c0.8,0,1.5,0.6,1.6,1.4l4.4,26.1c0.6,3.3,3,6,6.3,6.8c9.5,2.4,18.5,6.1,26.9,11c2.9,1.7,6.5,1.6,9.2-0.4l21.6-15.6
			c0.3-0.2,0.6-0.3,0.9-0.3c0.3,0,0.8,0.1,1.2,0.5l18.7,18.7c0.6,0.6,0.6,1.4,0.2,2.1l-15.5,21.8c-1.9,2.7-2.1,6.3-0.4,9.2
			c4.9,8.2,8.5,17.1,10.9,26.3c0.8,3.3,3.5,5.7,6.8,6.2l26.3,4.5c0.8,0.1,1.4,0.8,1.4,1.6L812.4,631.1L812.4,631.1z" fill="#2c3e50"/>
		<path d="M679.1,553.1c-35.7,0-64.8,29-64.8,64.8c0,35.7,29,64.8,64.8,64.8c35.7,0,64.8-29,64.8-64.8
			C743.9,582.1,714.9,553.1,679.1,553.1z M679.1,665.7c-26.4,0-47.8-21.4-47.8-47.8s21.4-47.8,47.8-47.8s47.8,21.4,47.8,47.8
			S705.5,665.7,679.1,665.7z" fill="#2c3e50"/>
	</g>
</g>
<g>
	<g>
		<path d="M813.8,118.1l-21.1-3.6c-2.2-7.1-5-13.9-8.5-20.4l12.4-17.4c5.3-7.4,4.5-17.5-2-23.9L776,34.1
			c-3.5-3.5-8.2-5.5-13.1-5.5c-3.9,0-7.6,1.2-10.7,3.4l-17.4,12.4c-6.8-3.6-13.9-6.5-21.2-8.7L710,15c-1.5-9-9.2-15.5-18.3-15.5
			h-26.4C656.2-0.5,648.5,6,647,15l-3.6,21.3c-7,2.2-13.9,5.1-20.4,8.6l-17.2-12.4c-3.1-2.3-6.9-3.4-10.8-3.4c-5,0-9.7,1.9-13.1,5.5
			l-18.8,18.7c-6.4,6.4-7.3,16.5-2,23.9l12.5,17.6c-3.4,6.6-6.2,13.4-8.3,20.5l-20.8,3.5c-9,1.5-15.5,9.2-15.5,18.3v26.4
			c0,9.1,6.5,16.8,15.5,18.3l21.3,3.6c2.2,7,5.1,13.9,8.6,20.4L562,222.9c-5.3,7.4-4.5,17.5,2,23.9l18.7,18.7
			c3.5,3.5,8.2,5.5,13.1,5.5c3.9,0,7.6-1.2,10.7-3.4l17.6-12.5c6.3,3.3,13,6,19.8,8.2l3.5,21.1c1.5,9,9.2,15.5,18.3,15.5h26.5
			c9.1,0,16.8-6.5,18.3-15.5l3.6-21.1c7.1-2.2,13.9-5,20.4-8.5l17.4,12.4c3.1,2.3,6.9,3.4,10.8,3.4l0,0c5,0,9.6-1.9,13.1-5.5
			l18.7-18.7c6.4-6.4,7.3-16.5,2-23.9l-12.4-17.4c3.4-6.6,6.3-13.4,8.5-20.4l21.1-3.5c9-1.5,15.5-9.2,15.5-18.3v-26.4
			C829.3,127.3,822.8,119.6,813.8,118.1z M812.4,162.8c0,0.8-0.6,1.5-1.4,1.6l-26.3,4.4c-3.3,0.6-6,3-6.8,6.2
			c-2.4,9.2-6,18.1-10.9,26.3c-1.7,2.9-1.6,6.5,0.4,9.2l15.5,21.8c0.4,0.6,0.4,1.6-0.2,2.1L764,253.2c-0.4,0.4-0.9,0.5-1.2,0.5
			c-0.4,0-0.7-0.1-0.9-0.3l-21.8-15.5c-2.7-1.9-6.3-2.1-9.2-0.4c-8.2,4.9-17.1,8.5-26.3,10.9c-3.3,0.8-5.7,3.5-6.2,6.8l-4.5,26.3
			c-0.1,0.8-0.8,1.4-1.6,1.4h-26.4c-0.8,0-1.5-0.6-1.6-1.4l-4.4-26.3c-0.6-3.3-3-6-6.2-6.8c-9-2.3-17.6-5.9-25.7-10.5
			c-1.3-0.8-2.8-1.1-4.3-1.1c-1.7,0-3.4,0.5-4.9,1.6l-21.9,15.6c-0.3,0.2-0.6,0.3-0.9,0.3c-0.3,0-0.8-0.1-1.2-0.5L576,235
			c-0.6-0.6-0.6-1.4-0.2-2.1l15.4-21.6c1.9-2.8,2.1-6.4,0.4-9.3c-4.9-8.2-8.7-17-11-26.2c-0.9-3.2-3.5-5.6-6.8-6.2l-26.5-4.5
			c-0.8-0.1-1.4-0.8-1.4-1.6V137c0-0.8,0.6-1.5,1.4-1.6l26.1-4.4c3.3-0.6,6-3,6.8-6.3c2.3-9.2,5.9-18.1,10.7-26.3
			c1.7-2.9,1.5-6.5-0.4-9.2L575,67.3c-0.4-0.6-0.4-1.6,0.2-2.1l18.7-18.7c0.4-0.4,0.9-0.5,1.2-0.5c0.4,0,0.7,0.1,0.9,0.3l21.6,15.4
			c2.8,1.9,6.4,2.1,9.3,0.4c8.2-4.9,17-8.7,26.2-11c3.2-0.9,5.6-3.5,6.2-6.8l4.5-26.5c0.1-0.8,0.8-1.4,1.6-1.4h26.4
			c0.8,0,1.5,0.6,1.6,1.4l4.4,26.1c0.6,3.3,3,6,6.3,6.8c9.5,2.4,18.5,6.1,26.9,11c2.9,1.7,6.5,1.6,9.2-0.4l21.6-15.6
			c0.3-0.2,0.6-0.3,0.9-0.3c0.3,0,0.8,0.1,1.2,0.5l18.7,18.7c0.6,0.6,0.6,1.4,0.2,2.1l-15.5,21.8c-1.9,2.7-2.1,6.3-0.4,9.2
			c4.9,8.2,8.5,17.1,10.9,26.3c0.8,3.3,3.5,5.7,6.8,6.2l26.3,4.5c0.8,0.1,1.4,0.8,1.4,1.6L812.4,162.8L812.4,162.8z" fill="#2c3e50"/>
		<path d="M679.1,84.8c-35.7,0-64.8,29-64.8,64.8s29,64.8,64.8,64.8c35.7,0,64.8-29,64.8-64.8S714.9,84.8,679.1,84.8z
			 M679.1,197.4c-26.4,0-47.8-21.4-47.8-47.8s21.4-47.8,47.8-47.8s47.8,21.4,47.8,47.8S705.5,197.4,679.1,197.4z" fill="#2c3e50"/>
	</g>
</g>
</svg>
