<?xml version="1.0" encoding="utf-8"?>
<!-- Generator: Adobe Illustrator 21.0.2, SVG Export Plug-In . SVG Version: 6.00 Build 0)  -->
<svg version="1.1" id="Layer_1" xmlns="http://www.w3.org/2000/svg" xmlns:xlink="http://www.w3.org/1999/xlink" x="0px" y="0px"
	 viewBox="0 0 512 512" style="enable-background:new 0 0 512 512;" xml:space="preserve" width="512" height="512">
<g>
	<g>
		<path style="fill:#0F0F0F;" d="M486.4,196.3H384v-85.3c0-4.7-3.8-8.5-8.5-8.5h-42.7V59.7c0-4.7-3.8-8.5-8.5-8.5h-59.7V0h-17.1
			v51.2h-59.7c-4.7,0-8.5,3.8-8.5,8.5v42.7h-42.7c-4.7,0-8.5,3.8-8.5,8.5v85.3H25.6c-4.7,0-8.5,3.8-8.5,8.5v298.7
			c0,4.7,3.8,8.5,8.5,8.5h110.9h238.9h110.9c4.7,0,8.5-3.8,8.5-8.5V204.8C494.9,200.1,491.1,196.3,486.4,196.3z M128,494.9H34.1
			V213.3H128V494.9z M196.3,68.3h119.5v34.1H196.3V68.3z M366.9,204.8v290.1H145.1V204.8v-85.3h42.7h136.5h42.7L366.9,204.8
			L366.9,204.8z M477.9,494.9H384V213.3h93.9V494.9z"/>
	</g>
</g>
<g>
	<g>
		<path style="fill:#0F0F0F;" d="M230.4,409.6h-59.7c-4.7,0-8.5,3.8-8.5,8.5v51.2c0,4.7,3.8,8.5,8.5,8.5h59.7c4.7,0,8.5-3.8,8.5-8.5
			v-51.2C238.9,413.4,235.1,409.6,230.4,409.6z M221.9,460.8h-42.7v-34.1h42.7V460.8z"/>
	</g>
</g>
<g>
	<g>
		<path style="fill:#0F0F0F;" d="M230.4,324.3h-59.7c-4.7,0-8.5,3.8-8.5,8.5V384c0,4.7,3.8,8.5,8.5,8.5h59.7c4.7,0,8.5-3.8,8.5-8.5
			v-51.2C238.9,328.1,235.1,324.3,230.4,324.3z M221.9,375.5h-42.7v-34.1h42.7V375.5z"/>
	</g>
</g>
<g>
	<g>
		<path style="fill:#0F0F0F;" d="M230.4,238.9h-59.7c-4.7,0-8.5,3.8-8.5,8.5v51.2c0,4.7,3.8,8.5,8.5,8.5h59.7c4.7,0,8.5-3.8,8.5-8.5
			v-51.2C238.9,242.8,235.1,238.9,230.4,238.9z M221.9,290.1h-42.7V256h42.7V290.1z"/>
	</g>
</g>
<g>
	<g>
		<path style="fill:#0F0F0F;" d="M102.4,247.5H59.7c-4.7,0-8.5,3.8-8.5,8.5v42.7c0,4.7,3.8,8.5,8.5,8.5h42.7c4.7,0,8.5-3.8,8.5-8.5
			V256C110.9,251.3,107.1,247.5,102.4,247.5z M93.9,290.1H68.3v-25.6h25.6V290.1z"/>
	</g>
</g>
<g>
	<g>
		<path style="fill:#0F0F0F;" d="M452.3,247.5h-42.7c-4.7,0-8.5,3.8-8.5,8.5v42.7c0,4.7,3.8,8.5,8.5,8.5h42.7c4.7,0,8.5-3.8,8.5-8.5
			V256C460.8,251.3,457,247.5,452.3,247.5z M443.7,290.1h-25.6v-25.6h25.6V290.1z"/>
	</g>
</g>
<g>
	<g>
		<path style="fill:#0F0F0F;" d="M102.4,324.3H59.7c-4.7,0-8.5,3.8-8.5,8.5v42.7c0,4.7,3.8,8.5,8.5,8.5h42.7c4.7,0,8.5-3.8,8.5-8.5
			v-42.7C110.9,328.1,107.1,324.3,102.4,324.3z M93.9,366.9H68.3v-25.6h25.6V366.9z"/>
	</g>
</g>
<g>
	<g>
		<path style="fill:#0F0F0F;" d="M452.3,324.3h-42.7c-4.7,0-8.5,3.8-8.5,8.5v42.7c0,4.7,3.8,8.5,8.5,8.5h42.7c4.7,0,8.5-3.8,8.5-8.5
			v-42.7C460.8,328.1,457,324.3,452.3,324.3z M443.7,366.9h-25.6v-25.6h25.6V366.9z"/>
	</g>
</g>
<g>
	<g>
		<path style="fill:#0F0F0F;" d="M102.4,401.1H59.7c-4.7,0-8.5,3.8-8.5,8.5v42.7c0,4.7,3.8,8.5,8.5,8.5h42.7c4.7,0,8.5-3.8,8.5-8.5
			v-42.7C110.9,404.9,107.1,401.1,102.4,401.1z M93.9,443.7H68.3v-25.6h25.6V443.7z"/>
	</g>
</g>
<g>
	<g>
		<path style="fill:#0F0F0F;" d="M452.3,401.1h-42.7c-4.7,0-8.5,3.8-8.5,8.5v42.7c0,4.7,3.8,8.5,8.5,8.5h42.7c4.7,0,8.5-3.8,8.5-8.5
			v-42.7C460.8,404.9,457,401.1,452.3,401.1z M443.7,443.7h-25.6v-25.6h25.6V443.7z"/>
	</g>
</g>
<g>
	<g>
		<path style="fill:#0F0F0F;" d="M341.3,409.6h-59.7c-4.7,0-8.5,3.8-8.5,8.5v51.2c0,4.7,3.8,8.5,8.5,8.5h59.7c4.7,0,8.5-3.8,8.5-8.5
			v-51.2C349.9,413.4,346,409.6,341.3,409.6z M332.8,460.8h-42.7v-34.1h42.7V460.8z"/>
	</g>
</g>
<g>
	<g>
		<path style="fill:#0F0F0F;" d="M341.3,324.3h-59.7c-4.7,0-8.5,3.8-8.5,8.5V384c0,4.7,3.8,8.5,8.5,8.5h59.7c4.7,0,8.5-3.8,8.5-8.5
			v-51.2C349.9,328.1,346,324.3,341.3,324.3z M332.8,375.5h-42.7v-34.1h42.7V375.5z"/>
	</g>
</g>
<g>
	<g>
		<path style="fill:#0F0F0F;" d="M341.3,238.9h-59.7c-4.7,0-8.5,3.8-8.5,8.5v51.2c0,4.7,3.8,8.5,8.5,8.5h59.7c4.7,0,8.5-3.8,8.5-8.5
			v-51.2C349.9,242.8,346,238.9,341.3,238.9z M332.8,290.1h-42.7V256h42.7V290.1z"/>
	</g>
</g>
<polygon style="fill:#0F0F0F;" points="290.9,128 290.9,213.3 273.8,213.3 273.8,179.2 238.2,179.2 238.2,213.3 221.1,213.3
	221.1,128 238.2,128 238.2,162.1 273.8,162.1 273.8,128 "/>
</svg>
